<svg xmlns="http://www.w3.org/2000/svg" width="54.48" height="36.825" viewBox="0 0 54.48 36.825"><path d="M49.178,74.876V66.019c0-3.962-2.8-5.419-5.419-5.419H10.546c-2.622,0-5.419,1.4-5.419,5.419v8.857C2.505,75.167,0,76.915,0,80.935v6.876a2.089,2.089,0,0,0,2.1,2.1h.7v5.419a2.089,2.089,0,0,0,2.1,2.1H6.876a2.089,2.089,0,0,0,2.1-2.1V89.85H45.507v5.477a2.089,2.089,0,0,0,2.1,2.1h1.981a2.089,2.089,0,0,0,2.1-2.1V89.85h.7a2.089,2.089,0,0,0,2.1-2.1V80.935C54.305,76.915,51.8,75.167,49.178,74.876ZM7.109,66.019h.117c0-2.739,1.806-3.321,3.321-3.321H43.759c1.515,0,3.321.583,3.321,3.321v8.8H45.507V69.806a2.089,2.089,0,0,0-2.1-2.1H30.59a2.089,2.089,0,0,0-2.1,2.1v5.011H26.045V69.806a2.089,2.089,0,0,0-2.1-2.1H11.129a2.089,2.089,0,0,0-2.1,2.1v5.011H7.109Zm36.3,3.787v5.011H30.59V69.806Zm-19.345,0v5.011H11.246V69.806ZM6.817,95.327H4.836V89.85H6.817Zm42.652,0H47.488V89.85h1.981Zm2.739-7.516H2.039V84.723H52.207Zm0-5.186H2.039v-1.69c0-3.5,2.564-4.02,4.02-4.02H48.187c1.515,0,4.02.524,4.02,4.02Z" transform="translate(0 -60.6)" fill="#fff"/></svg>