<svg xmlns="http://www.w3.org/2000/svg" width="50" height="31.537" viewBox="0 0 50 31.537"><g transform="translate(0 0)"><path d="M46.5,32.962h-.833V21.135c0-2.816-3.333-5.068-7.5-5.068-3.688,0-6.341,1.848-6.638,4.556-1.936.247-3.362,1.374-3.362,2.765,0,.338.333.563.833.563h6.667c.5,0,.833-.225.833-.563,0-1.375-1.394-2.493-3.3-2.756.249-1.79,1.839-3.438,4.964-3.438,3.25,0,5.833,1.746,5.833,3.942V32.962H18.919c-.377-1.3-2.039-2.253-4.086-2.253A5.292,5.292,0,0,0,11.5,29.583,4.624,4.624,0,0,0,7.833,31.1a6.878,6.878,0,0,0-2.167-.394c-2.047,0-3.709.954-4.086,2.253H1.5c-1.417,0-2.5.732-2.5,1.689s1.083,1.689,2.5,1.689h1L4.75,42.366c.667,1.746,3,2.985,5.667,2.985h.667L10,46.815c-.25.282-.083.619.333.732a.7.7,0,0,0,.333.056,1.02,1.02,0,0,0,.75-.282l1.458-1.971H36l1.417,1.915a.873.873,0,0,0,.75.338c.167,0,.25,0,.333-.113a.509.509,0,0,0,.333-.732l-1.044-1.411c2.58-.062,4.811-1.28,5.461-2.925l2.27-6.082h.98c1.417,0,2.5-.732,2.5-1.689S47.917,32.962,46.5,32.962ZM34.75,22.825H30A2.7,2.7,0,0,1,32.417,21.7,2.544,2.544,0,0,1,34.75,22.825ZM5.667,31.835a3.51,3.51,0,0,1,2,.619.987.987,0,0,0,.833.169.681.681,0,0,0,.583-.451,2.475,2.475,0,0,1,2.5-1.464,2.668,2.668,0,0,1,2.167.845,1.02,1.02,0,0,0,.917.282h.25a2.544,2.544,0,0,1,2.333,1.126H3.333A2.544,2.544,0,0,1,5.667,31.835ZM41.75,42.085c-.5,1.239-2.167,2.14-4.083,2.14H10.5c-1.917,0-3.583-.9-4.083-2.14L4.25,36.341h39.5Zm4.75-6.871H1.5c-.5,0-.833-.225-.833-.563s.333-.563.833-.563h45c.5,0,.833.225.833.563S47,35.214,46.5,35.214Z" transform="translate(1 -16.067)" fill="#fff"/><path d="M298.23,154.008a.532.532,0,0,0,.563-.563v-.282a.563.563,0,1,0-1.126,0v.282A.532.532,0,0,0,298.23,154.008Z" transform="translate(-268.174 -143.59)" fill="#fff"/><path d="M298.23,188.48a.564.564,0,0,0,.563-.563v-.62a.563.563,0,0,0-1.126,0v.62A.532.532,0,0,0,298.23,188.48Z" transform="translate(-268.174 -175.471)" fill="#fff"/><path d="M298.23,226.542a.532.532,0,0,0,.563-.563V225.7a.563.563,0,1,0-1.126,0v.282A.532.532,0,0,0,298.23,226.542Z" transform="translate(-268.174 -211.337)" fill="#fff"/><path d="M332.363,154.008a.532.532,0,0,0,.563-.563v-.282a.563.563,0,0,0-1.126,0v.282A.532.532,0,0,0,332.363,154.008Z" transform="translate(-298.937 -143.59)" fill="#fff"/><path d="M331.8,187.916a.532.532,0,0,0,.563.563.564.564,0,0,0,.563-.563v-.62a.563.563,0,1,0-1.126,0Z" transform="translate(-298.937 -175.47)" fill="#fff"/><path d="M331.8,225.978a.563.563,0,1,0,1.126,0V225.7a.563.563,0,1,0-1.126,0Z" transform="translate(-298.937 -211.336)" fill="#fff"/><path d="M366.5,154.008a.532.532,0,0,0,.563-.563v-.282a.563.563,0,1,0-1.126,0v.282A.532.532,0,0,0,366.5,154.008Z" transform="translate(-329.7 -143.59)" fill="#fff"/><path d="M365.933,187.916a.532.532,0,0,0,.563.563.564.564,0,0,0,.563-.563v-.62a.563.563,0,1,0-1.126,0v.62Z" transform="translate(-329.699 -175.47)" fill="#fff"/><path d="M365.933,225.978a.563.563,0,1,0,1.126,0V225.7a.563.563,0,1,0-1.126,0Z" transform="translate(-329.699 -211.336)" fill="#fff"/></g></svg>